<mxfile host="app.diagrams.net" agent="Mozilla/5.0 (Windows NT 10.0; Win64; x64) AppleWebKit/537.36 (KHTML, like Gecko) Chrome/141.0.0.0 Safari/537.36 Edg/141.0.0.0" version="28.2.7">
  <diagram name="Pagina-1" id="ipkPd66CMkD5lRAYjLPr">
    <mxGraphModel dx="313" dy="277" grid="1" gridSize="10" guides="1" tooltips="1" connect="1" arrows="1" fold="1" page="1" pageScale="1" pageWidth="827" pageHeight="1169" math="0" shadow="0">
      <root>
        <mxCell id="0" />
        <mxCell id="1" parent="0" />
        <mxCell id="fYWJ82I07q9WOCRrRs4D-10" value="" style="rounded=0;whiteSpace=wrap;html=1;" vertex="1" parent="1">
          <mxGeometry x="170" y="130" width="180" height="170" as="geometry" />
        </mxCell>
        <mxCell id="fYWJ82I07q9WOCRrRs4D-1" value="cliente" style="shape=umlActor;verticalLabelPosition=bottom;verticalAlign=top;html=1;outlineConnect=0;" vertex="1" parent="1">
          <mxGeometry x="90" y="170" width="31.666666666666668" height="60" as="geometry" />
        </mxCell>
        <mxCell id="fYWJ82I07q9WOCRrRs4D-6" value="" style="endArrow=none;html=1;rounded=0;fontSize=12;startSize=8;endSize=8;curved=1;entryX=1;entryY=0.3333333333333333;entryDx=0;entryDy=0;entryPerimeter=0;" edge="1" parent="1" source="fYWJ82I07q9WOCRrRs4D-5" target="fYWJ82I07q9WOCRrRs4D-1">
          <mxGeometry width="50" height="50" relative="1" as="geometry">
            <mxPoint x="246.11111111111111" y="350" as="sourcePoint" />
            <mxPoint x="298.8888888888889" y="300" as="targetPoint" />
          </mxGeometry>
        </mxCell>
        <mxCell id="fYWJ82I07q9WOCRrRs4D-9" value="" style="endArrow=none;html=1;rounded=0;fontSize=12;startSize=8;endSize=8;curved=1;entryX=1;entryY=0.3333333333333333;entryDx=0;entryDy=0;entryPerimeter=0;exitX=0;exitY=0.5;exitDx=0;exitDy=0;" edge="1" parent="1" source="fYWJ82I07q9WOCRrRs4D-8" target="fYWJ82I07q9WOCRrRs4D-1">
          <mxGeometry width="50" height="50" relative="1" as="geometry">
            <mxPoint x="292.55555555555554" y="270" as="sourcePoint" />
            <mxPoint x="225" y="290" as="targetPoint" />
          </mxGeometry>
        </mxCell>
        <mxCell id="fYWJ82I07q9WOCRrRs4D-16" value="" style="endArrow=none;html=1;rounded=0;fontSize=12;startSize=8;endSize=8;curved=1;entryX=1;entryY=0.3333333333333333;entryDx=0;entryDy=0;entryPerimeter=0;exitX=0;exitY=0.5;exitDx=0;exitDy=0;" edge="1" parent="1" source="fYWJ82I07q9WOCRrRs4D-14" target="fYWJ82I07q9WOCRrRs4D-1">
          <mxGeometry width="50" height="50" relative="1" as="geometry">
            <mxPoint x="172.22222222222223" y="305" as="sourcePoint" />
            <mxPoint x="87.77777777777777" y="260" as="targetPoint" />
          </mxGeometry>
        </mxCell>
        <mxCell id="fYWJ82I07q9WOCRrRs4D-11" value="Routine" style="text;html=1;whiteSpace=wrap;strokeColor=none;fillColor=none;align=center;verticalAlign=middle;rounded=0;fontSize=16;" vertex="1" parent="1">
          <mxGeometry x="170.00222222222223" y="100" width="63.33333333333333" height="30" as="geometry" />
        </mxCell>
        <mxCell id="fYWJ82I07q9WOCRrRs4D-5" value="Ricevere notifiche" style="ellipse;whiteSpace=wrap;html=1;" vertex="1" parent="1">
          <mxGeometry x="270.00111111111113" y="140" width="73.88888888888889" height="40" as="geometry" />
        </mxCell>
        <mxCell id="fYWJ82I07q9WOCRrRs4D-8" value="vedere priorità attività" style="ellipse;whiteSpace=wrap;html=1;" vertex="1" parent="1">
          <mxGeometry x="270.00111111111113" y="185" width="73.88888888888889" height="50" as="geometry" />
        </mxCell>
        <mxCell id="fYWJ82I07q9WOCRrRs4D-14" value="Ricevere badge" style="ellipse;whiteSpace=wrap;html=1;" vertex="1" parent="1">
          <mxGeometry x="270.00111111111113" y="240" width="73.88888888888889" height="50" as="geometry" />
        </mxCell>
      </root>
    </mxGraphModel>
  </diagram>
</mxfile>
